# xmcd
#
# Track frame offsets: 
#        150
#        14339
#        29220
#        49388
#        66345
#        83182
#        103463
#        121263
#        139913
#        158709
#        181058
#        200415
#        213095
#        230989
#
# Disc length: 3369 seconds
#
# Revision: 0
# Processed by: cddbd v1.5.2PL0 Copyright (c) Steve Scherf et al.
# Submitted via: ExactAudioCopyFreeDBPlugin 1.0
#
DISCID=d10d270e
DTITLE=Yelawolf - Trunk Muzik 3
DYEAR=2019
DGENRE=Rap
TTITLE0=TM3
TTITLE1=Catfish Billy 2
TTITLE2=Rowdy ft. Machine Gun Kelly and DJ Paul
TTITLE3=Special Kind Of Bad
TTITLE4=Like I Love You
TTITLE5=Drugs
TTITLE6=Trailer Park Hollywood
TTITLE7=No Such Thing As Free ft. Caskey and Doobie
TTITLE8=We Slum ft. Shawty Fatt and Big Henri
TTITLE9=Box Chevy 6 ft. Rittz, DJ Paul and DJ Klever
TTITLE10=All the Way Up ft. MopTop and Cub da CookUpBoss
TTITLE11=Over Again
TTITLE12=Addiction
TTITLE13=Over Here
EXTD=
EXTT0=
EXTT1=
EXTT2=
EXTT3=
EXTT4=
EXTT5=
EXTT6=
EXTT7=
EXTT8=
EXTT9=
EXTT10=
EXTT11=
EXTT12=
EXTT13=
PLAYORDER=
